<svg width="200" height="200" viewBox="0 0 200 200" fill="none" xmlns="http://www.w3.org/2000/svg">
<rect width="200" height="200" rx="36" fill="#FE5000"/>
<g clip-path="url(#clip0_21693_8363)">
<path d="M78.5731 112.814L73.131 104.74C72.9294 104.441 72.8554 104.074 72.9255 103.721C72.9957 103.368 73.2041 103.057 73.5044 102.858C75.997 101.188 77.5606 98.1989 77.5606 94.7516C77.5606 88.8486 72.6239 84.1787 66.5412 84.1787H53.4649C53.2275 84.1787 52.9999 84.2732 52.8322 84.4412C52.6644 84.6093 52.5704 84.8372 52.5708 85.0747V90.797C52.5696 91.0328 52.753 91.2282 52.9883 91.242C57.4133 91.4804 60.967 95.2968 60.967 99.6508C60.967 104.046 57.3754 107.78 52.9883 108.017C52.753 108.031 52.5696 108.226 52.5708 108.462V114.013C52.5708 114.507 52.9711 114.907 53.4649 114.907H61.0627C61.5565 114.907 61.9568 114.507 61.9568 114.013V111.338C61.9568 109.432 63.6023 108.971 64.8608 110.465L68.0486 114.458C68.335 114.748 68.725 114.911 69.1325 114.913H77.4573C77.956 114.916 78.415 114.642 78.6492 114.201C78.8833 113.761 78.854 113.227 78.5731 112.814Z" fill="white"/>
<path d="M82.7416 84.1631H89.3268C89.8208 84.1639 90.2209 84.5648 90.2209 85.0591V114.002C90.2209 114.496 89.8206 114.896 89.3268 114.896H82.7416C82.2475 114.896 81.8468 114.496 81.8459 114.002V85.0591C81.8459 84.5642 82.2469 84.1631 82.7416 84.1631Z" fill="white"/>
<path d="M100.911 91.7472H93.972C93.4811 91.7473 93.082 91.3514 93.0779 90.8604V85.0591C93.0779 84.5648 93.4779 84.1639 93.972 84.1631H116.953C117.447 84.1639 117.848 84.5648 117.848 85.0591V90.8604C117.848 91.3544 117.447 91.7548 116.953 91.7548H110.185C109.939 91.7597 109.742 91.9577 109.738 92.2028V114.002C109.738 114.496 109.338 114.896 108.844 114.896H102.259C101.765 114.896 101.364 114.496 101.363 114.002V92.1952C101.359 91.9478 101.158 91.7489 100.911 91.7472Z" fill="white"/>
<path d="M121.726 84.1631H142.591C143.085 84.1639 143.485 84.5648 143.485 85.0591V90.8087C143.485 91.046 143.391 91.2735 143.223 91.4412C143.056 91.609 142.828 91.7032 142.591 91.7032H129.653C129.402 91.7032 129.198 91.9072 129.198 92.1588V95.4998C129.198 95.6199 129.246 95.7348 129.332 95.8188C129.417 95.9028 129.533 95.9488 129.653 95.9463H141.665C142.159 95.9472 142.559 96.3481 142.559 96.8423V101.931C142.559 102.425 142.159 102.826 141.665 102.826H129.653C129.405 102.826 129.203 103.024 129.198 103.272V107.052C129.203 107.3 129.405 107.499 129.653 107.499H142.943C143.437 107.5 143.837 107.9 143.837 108.395V114.014C143.837 114.508 143.437 114.908 142.943 114.908H121.726C121.232 114.908 120.832 114.508 120.832 114.014V85.0591C120.831 84.8216 120.925 84.5937 121.093 84.4256C121.261 84.2575 121.489 84.1631 121.726 84.1631Z" fill="white"/>
<path d="M162.952 83.7217C153.565 83.7217 146.028 90.8594 146.028 99.6387C146.028 108.418 153.565 115.513 162.952 115.513C172.384 115.513 179.921 108.413 179.921 99.6387C179.921 90.8639 172.384 83.7217 162.952 83.7217ZM162.952 108.02C160.729 108.027 158.595 107.146 157.024 105.573C155.452 104.001 154.572 101.866 154.579 99.6417C154.579 95.101 158.325 91.2208 162.952 91.2208C167.579 91.2208 171.371 95.145 171.371 99.6417C171.379 104.181 167.552 108.02 162.96 108.02H162.952Z" fill="white"/>
<path d="M36.7484 83.7217C41.5271 83.7217 45.8049 85.7628 48.8622 89.0172C49.0281 89.1974 49.1131 89.4376 49.0973 89.6821C49.0815 89.9265 48.9664 90.1538 48.7787 90.3111L44.4402 93.9483C44.0866 94.2403 43.5697 94.2181 43.2425 93.8967C41.509 92.1947 39.1817 91.234 36.7529 91.2178C32.1245 91.2178 28.378 94.7456 28.378 99.5506C28.378 104.356 32.1245 107.841 36.7529 107.841C39.1816 107.824 41.5087 106.863 43.2425 105.162C43.5693 104.84 44.0863 104.817 44.4402 105.109L48.7818 108.746C48.9701 108.903 49.0857 109.13 49.1018 109.375C49.1179 109.619 49.0329 109.86 48.8668 110.04C45.8095 113.294 41.5317 115.336 36.7529 115.336C27.493 115.336 20 108.678 20 99.5506C20 90.4235 27.493 83.7217 36.7484 83.7217Z" fill="white"/>
</g>
<defs>
<clipPath id="clip0_21693_8363">
<rect width="160" height="32.5558" fill="white" transform="translate(20 83.7217)"/>
</clipPath>
</defs>
</svg>
