<svg width="162" height="202" viewBox="0 0 162 202" fill="none" xmlns="http://www.w3.org/2000/svg">
<mask id="mask0_422_328" style="mask-type:alpha" maskUnits="userSpaceOnUse" x="0" y="0" width="162" height="202">
<path d="M153 0.5C157.694 0.5 161.5 4.30558 161.5 9V33C161.5 37.6944 157.694 41.5 153 41.5H69C64.8579 41.5 61.5 44.8579 61.5 49V133C61.5 137.142 64.8579 140.5 69 140.5H113C117.142 140.5 120.5 137.142 120.5 133V109C120.5 104.858 117.142 101.5 113 101.5H99C94.3056 101.5 90.5 97.6944 90.5 93V69C90.5 64.3056 94.3056 60.5 99 60.5H153C157.694 60.5 161.5 64.3056 161.5 69V193C161.5 197.694 157.694 201.5 153 201.5H9C4.30558 201.5 0.5 197.694 0.5 193V9C0.5 4.30558 4.30558 0.5 9 0.5H153Z" fill="white" stroke="white"/>
</mask>
<g mask="url(#mask0_422_328)">
<g filter="url(#filter0_f_422_328)">
<path d="M18.3654 56.902C-18.8493 52.902 -1.32727 49.0954 -36.5002 43.8075C-161.451 25.0225 26.9663 -37.3261 166.218 -28.598C297.963 -20.3403 238.907 43.2523 238.907 43.2523C238.907 43.2523 217.792 50.3586 183.317 56.902C152.204 62.8072 133.203 52.902 100.841 52.902C68.4794 52.902 55.58 60.902 18.3654 56.902Z" fill="#FFE100"/>
<path d="M83.7612 188.35C88.2788 154.693 54.8705 155.586 47.752 129.656C22.4641 37.5399 187.101 7.90959 230.5 101C271.559 189.071 155.796 299.8 155.796 299.8C155.796 299.8 108.536 322.724 86.9414 306.5C67.4526 291.858 66.2404 270.41 70.2485 246.371C73.4151 227.38 81.1998 207.433 83.7612 188.35Z" fill="#25CCFF"/>
<path d="M110.5 204.5C82.9126 259.554 56.8186 315.751 1.70235 288.133C-53.414 260.514 -75.7307 193.495 -48.1434 138.441C-20.5561 83.386 46.4883 61.1444 101.605 88.7626C156.721 116.381 75.1439 151.169 110.5 204.5Z" fill="#6932FF"/>
<path d="M-137.633 46.1114C-170.674 65.9613 -191.56 82.3843 -191.141 110.505C-190.323 165.33 -43.8348 189.15 4.99987 156.5C32.3317 138.226 70.4188 132.023 66.2709 88.7626C64.4407 69.6741 34.7403 53.1779 16.8345 37.4105C-23.2339 2.12753 -87.3603 15.9093 -137.633 46.1114Z" fill="#FF4880"/>
<path d="M61.6112 98.8544C-18.5003 68.4226 -13.8285 160.461 -57.7734 138.441C-101.718 116.42 -119.517 62.9949 -97.5274 19.1117C-75.5379 -24.7715 -22.0876 -42.4949 21.8573 -20.4745C65.8022 1.54581 83.6007 54.9712 61.6112 98.8544Z" fill="#FF7669"/>
</g>
</g>
<defs>
<filter id="filter0_f_422_328" x="-257.147" y="-95.9365" width="575.251" height="474.243" filterUnits="userSpaceOnUse" color-interpolation-filters="sRGB">
<feFlood flood-opacity="0" result="BackgroundImageFix"/>
<feBlend mode="normal" in="SourceGraphic" in2="BackgroundImageFix" result="shape"/>
<feGaussianBlur stdDeviation="33" result="effect1_foregroundBlur_422_328"/>
</filter>
</defs>
</svg>
