<svg width="200" height="200" viewBox="0 0 200 200" fill="none" xmlns="http://www.w3.org/2000/svg">
<rect width="200" height="200" rx="36" fill="url(#paint0_linear_21_3635)"/>
<path d="M35.647 110.508C29.2029 104.625 29.1327 94.5005 35.4942 88.5283L66.9527 58.9946C66.7435 59.3648 66.522 59.7667 66.2984 60.2012C64.9934 62.7369 63.5221 66.3426 62.8656 70.6167C61.5482 79.1936 63.523 90.4018 76.5184 100.991C88.0782 110.41 100.026 120.161 109.726 128.082C119.503 136.066 118.258 151.358 107.325 157.67C100.024 161.885 90.8331 160.887 84.6065 155.203L35.647 110.508Z" fill="url(#paint1_linear_21_3635)" stroke="white" stroke-width="0.824399"/>
<path d="M164.112 89.3573C170.556 95.2403 170.627 105.365 164.265 111.337L132.807 140.871C133.016 140.5 133.237 140.098 133.461 139.664C134.766 137.128 136.237 133.523 136.894 129.249C138.211 120.672 136.236 109.463 123.241 98.8747C111.681 89.4556 99.733 79.7047 90.0335 71.7835C80.2564 63.799 81.5014 48.5073 92.434 42.1953C99.7356 37.9797 108.926 38.9782 115.153 44.6625L164.112 89.3573Z" fill="url(#paint2_linear_21_3635)" stroke="white" stroke-width="0.824399"/>
<defs>
<linearGradient id="paint0_linear_21_3635" x1="4.07919e-07" y1="2.5" x2="200" y2="200" gradientUnits="userSpaceOnUse">
<stop stop-color="#565656"/>
<stop offset="0.610577" stop-color="#1E1E1E"/>
<stop offset="1"/>
</linearGradient>
<linearGradient id="paint1_linear_21_3635" x1="57.9315" y1="59.8542" x2="112.842" y2="154.961" gradientUnits="userSpaceOnUse">
<stop stop-color="white" stop-opacity="0.96"/>
<stop offset="1" stop-color="white" stop-opacity="0.63"/>
</linearGradient>
<linearGradient id="paint2_linear_21_3635" x1="141.828" y1="140.011" x2="86.9176" y2="44.9038" gradientUnits="userSpaceOnUse">
<stop stop-color="white" stop-opacity="0.96"/>
<stop offset="1" stop-color="white" stop-opacity="0.63"/>
</linearGradient>
</defs>
</svg>
