<svg width="300" height="300" viewBox="0 0 300 300" fill="none" xmlns="http://www.w3.org/2000/svg">
<rect width="300" height="300" rx="54" fill="url(#paint0_linear_341_298)"/>
<path d="M248.544 119.209C247.881 145.226 226.967 172.771 207.775 188.405C200.875 194.025 193.493 198.396 186.167 200.029C178.835 201.664 171.561 200.556 164.896 195.223C158.141 189.817 154.855 181.451 152.583 173.28C152.071 171.437 152.749 169.476 154.256 168.298C156.741 166.355 160.374 167.323 162.262 169.849C166.344 175.311 172.333 178.537 179.856 178.857C188.514 179.224 198.372 176.444 207.722 170.299C217.071 164.155 225.898 155.673 232.491 146.69C239.086 137.704 243.436 128.232 243.852 120.109C244.544 106.559 234.999 103.718 223.286 108.35C219.178 109.975 214.715 112.288 210.149 114.994C191.881 125.823 172 142.934 166.61 147.456C163.126 150.39 159.643 153.325 156.138 156.235L149.788 161.454C149.785 161.456 149.782 161.454 149.782 161.451C149.782 161.448 149.778 161.447 149.776 161.449L141.48 168.167C121.342 183.877 98.3742 200.65 71.6883 200.725C59.3285 200.785 52.2027 192.681 52.5106 180.615C53.1745 154.599 74.0884 127.054 93.2804 111.42C100.18 105.8 107.562 101.429 114.888 99.7953C122.22 98.1604 129.494 99.2685 136.159 104.602C142.914 110.007 146.2 118.373 148.472 126.544C148.984 128.388 148.306 130.348 146.799 131.527C144.314 133.469 140.681 132.502 138.793 129.976C134.711 124.514 128.722 121.287 121.199 120.968C112.541 120.601 102.683 123.38 93.3325 129.526C83.9842 135.669 75.157 144.152 68.5638 153.135C61.9685 162.12 57.6186 171.593 57.2034 179.716C56.5109 193.265 66.0556 196.107 77.7688 191.474C81.8771 189.849 86.3399 187.537 90.9063 184.83C109.174 174.002 129.055 156.891 134.445 152.369C137.929 149.435 141.412 146.5 144.917 143.59L151.268 138.37C151.27 138.369 151.273 138.37 151.273 138.373C151.273 138.376 151.276 138.377 151.279 138.376L159.575 131.658C179.713 115.947 202.681 99.1744 229.367 99.0999C241.201 99.0421 248.842 107.558 248.544 119.209Z" fill="url(#paint1_linear_341_298)"/>
<path d="M52.4974 181.571C53.2384 190.145 63.8244 197.244 77.764 191.375C81.8359 189.661 86.3352 187.438 90.9016 184.731C109.17 173.903 129.051 156.792 134.441 152.27C137.924 149.336 141.408 146.401 144.912 143.491L151.268 138.267L151.269 138.281L159.57 131.559C179.709 115.848 202.676 99.0753 229.362 99.0008C241.722 98.9404 248.848 107.044 248.54 119.11C248.281 114.562 241.669 100.979 223.282 108.251C219.174 109.876 214.711 112.189 210.144 114.895C191.876 125.724 171.995 142.835 166.605 147.357C163.121 150.291 159.638 153.226 156.134 156.136L149.778 161.36L149.777 161.346L141.476 168.068C121.337 183.778 98.1403 200.695 71.4544 200.77C53.3268 200.241 52.4974 185.17 52.4974 181.571Z" fill="url(#paint2_linear_341_298)"/>
<defs>
<linearGradient id="paint0_linear_341_298" x1="0" y1="0" x2="300" y2="300" gradientUnits="userSpaceOnUse">
<stop stop-color="#58B6B6"/>
<stop offset="0.504808" stop-color="#27837E"/>
<stop offset="1" stop-color="#01584B"/>
</linearGradient>
<linearGradient id="paint1_linear_341_298" x1="248.553" y1="99.0998" x2="52.5006" y2="200.725" gradientUnits="userSpaceOnUse">
<stop stop-color="#C6ECE6"/>
<stop offset="0.485577" stop-color="#A0E8DB"/>
<stop offset="1" stop-color="#C6ECE6"/>
</linearGradient>
<linearGradient id="paint2_linear_341_298" x1="52.4974" y1="200.626" x2="248.55" y2="99.0003" gradientUnits="userSpaceOnUse">
<stop stop-color="#79B9AF"/>
<stop offset="0.485577" stop-color="#DDFFF9"/>
<stop offset="1" stop-color="#79B9AF"/>
</linearGradient>
</defs>
</svg>
