<svg width="260" height="80" viewBox="0 0 260 80" fill="none" xmlns="http://www.w3.org/2000/svg">
<mask id="mask0_207_98954" style="mask-type:luminance" maskUnits="userSpaceOnUse" x="0" y="0" width="259" height="80">
<path d="M258.462 0H0V80H258.462V0Z" fill="white"/>
</mask>
<g mask="url(#mask0_207_98954)">
<path d="M41.3333 0C18.5062 0 0 18.6055 0 41.5553C0 58.9218 10.5991 73.7893 25.641 80L36.166 61.6763C27.254 59.3685 20.664 51.233 20.664 41.5553C20.664 30.0805 29.9145 20.7803 41.328 20.7803C52.7417 20.7803 61.992 30.0805 61.992 41.5553C61.992 51.2383 55.4073 59.3685 46.49 61.6763L57.0152 80C72.0623 73.7893 82.656 58.9167 82.656 41.5553C82.6613 18.6055 64.1605 0 41.3333 0Z" fill="black"/>
<path d="M159.234 47.5629C159.234 50.2837 157.822 51.7377 155.702 51.7377C153.582 51.7377 152.17 50.2837 152.17 47.5629V32.89H142.495V48.3862C142.495 56.8745 148.174 60.8354 155.702 60.8354C163.23 60.8354 168.908 56.8799 168.908 48.4182V32.8954H159.234V47.5684V47.5629ZM129.194 60.119H138.869V20.5424H129.194V60.119ZM115.75 60.119H125.424V20.5424H115.75V60.119ZM205.065 32.147C201.37 32.147 198.678 33.5475 197.05 36.3485C195.363 33.6812 192.513 32.147 189.062 32.147C185.61 32.147 183.298 33.3284 181.777 35.691L180.18 32.89H172.562V60.119H182.237V45.5264C182.237 42.533 183.733 41.2929 185.603 41.2929C187.723 41.2929 189.003 42.7469 189.003 45.4675V60.1137H198.678V45.521C198.678 42.5277 200.175 41.2875 202.047 41.2875C204.167 41.2875 205.445 42.7415 205.445 45.4622V60.1084H215.12V42.3834C215.12 36.1187 211.287 32.1364 205.065 32.1364V32.147ZM248.845 32.147C245.477 32.147 243.082 33.3284 241.56 35.691L239.963 32.89H232.345V60.119H242.02V45.5264C242.02 42.5865 243.458 41.2929 245.387 41.2929C247.507 41.2929 248.787 42.7469 248.787 45.4675V60.1137H258.462V42.3887C258.462 36.124 254.412 32.1417 248.84 32.1417L248.845 32.147ZM107.084 19.2969C103.96 19.2969 101.539 21.7397 101.539 24.9042C101.539 28.0685 103.955 30.5114 107.084 30.5114C110.214 30.5114 112.63 28.0685 112.63 24.9042C112.63 21.7397 110.214 19.2969 107.084 19.2969ZM102.247 60.119H111.922V32.89H102.247V60.119ZM223.733 19.2969C220.608 19.2969 218.187 21.7397 218.187 24.9042C218.187 28.0685 220.603 30.5114 223.733 30.5114C226.862 30.5114 229.278 28.0685 229.278 24.9042C229.278 21.7397 226.862 19.2969 223.733 19.2969ZM218.895 60.119H228.57V32.89H218.895V60.119Z" fill="black"/>
</g>
</svg>
